<svg xmlns="http://www.w3.org/2000/svg" width="16" height="16" viewBox="0 0 16 16"><g fill="none" fill-rule="evenodd"><g><path d="M0 0L16 0 16 16 0 16z"></path><g fill="#F2FCFB" fill-rule="nonzero"><path d="M9.625 6.999l5.514-5.512c.262-.262.262-.686 0-.949-.262-.262-.687-.262-.949 0L8.252 6.474c-.144.144-.201.336-.186.525-.015.189.042.38.186.525l5.938 5.936c.262.262.687.262.95 0 .261-.262.261-.686 0-.948L9.624 6.999zm-8 0l5.514-5.512c.262-.262.262-.686 0-.949-.262-.262-.687-.262-.949 0L.252 6.474c-.144.144-.201.336-.186.525-.015.189.042.38.186.525L6.19 13.46c.262.262.687.262.95 0 .261-.262.261-.686 0-.948L1.624 6.999z" transform="translate(0 1)"></path></g></g></g></svg>